<svg width="169" height="61" viewBox="0 0 169 61" fill="none" xmlns="http://www.w3.org/2000/svg">
<path d="M20.6981 41.4307C22.5621 41.4307 24.0731 39.9196 24.0731 38.0557C24.0731 36.1917 22.5621 34.6807 20.6981 34.6807C18.8342 34.6807 17.3231 36.1917 17.3231 38.0557C17.3231 39.9196 18.8342 41.4307 20.6981 41.4307Z" fill="#22D47C"/>
<path d="M6.94812 19.0557H0.94812C0.810049 19.0557 0.69812 19.1676 0.69812 19.3057V24.8057C0.69812 24.9437 0.810049 25.0557 0.94812 25.0557H6.94812C7.08619 25.0557 7.19812 24.9437 7.19812 24.8057V19.3057C7.19812 19.1676 7.08619 19.0557 6.94812 19.0557Z" fill="#00313C"/>
<path d="M23.4481 19.0557H11.9274C11.8109 19.0557 11.7099 19.1361 11.6838 19.2497L6.73832 40.7497C6.70232 40.9063 6.82122 41.0557 6.98192 41.0557H12.4688C12.5853 41.0557 12.6863 40.9753 12.7124 40.8617L16.348 25.0557H23.4481C23.5862 25.0557 23.6981 24.9438 23.6981 24.8057V19.3057C23.6981 19.1676 23.5862 19.0557 23.4481 19.0557Z" fill="#00313C"/>
<path d="M45.6893 34.6293C45.6239 34.6029 45.5487 34.6049 45.4852 34.6342C44.6766 35.0248 43.7313 35.2768 43.076 35.2768C41.1414 35.2768 40.7352 33.7768 40.7352 32.519V26.2036H45.7108C45.8485 26.2036 45.9608 26.0913 45.9608 25.9536V22.9917C45.9608 22.854 45.8485 22.7417 45.7108 22.7417H40.7352V18.1509C40.7352 18.0132 40.6229 17.9009 40.4852 17.9009H36.7538C36.6161 17.9009 36.5038 18.0132 36.5038 18.1509V22.7417H33.3231C33.1854 22.7417 33.0731 22.854 33.0731 22.9917V25.9536C33.0731 26.0913 33.1854 26.2036 33.3231 26.2036H36.5038V32.8403C36.5038 38.1128 39.9208 39.2192 42.787 39.2192C44.1386 39.2192 45.2909 38.9047 46.7645 38.1352C46.8739 38.0776 46.9247 37.9487 46.8846 37.8315L45.8299 34.7778C45.8065 34.7104 45.7557 34.6567 45.6893 34.6294V34.6293Z" fill="#00313C"/>
<path d="M64.9461 22.7418H61.2147C61.077 22.7418 60.9647 22.8541 60.9647 22.9918V24.024C59.5594 22.8541 57.7801 22.2603 55.6747 22.2603C51.8143 22.2603 47.8212 25.438 47.8212 30.7564C47.8212 36.0533 51.8144 39.2193 55.6747 39.2193C57.7665 39.2193 59.5458 38.6373 60.9647 37.4888V38.4888C60.9647 38.6265 61.077 38.7388 61.2147 38.7388H64.9461C65.0838 38.7388 65.1961 38.6265 65.1961 38.4888V22.9917C65.1961 22.854 65.0838 22.7417 64.9461 22.7417V22.7418ZM56.4129 35.5328C53.7703 35.5328 51.9246 33.5689 51.9246 30.7564C51.9246 27.9253 53.7703 25.9478 56.4129 25.9478C58.6502 25.9478 60.9647 27.7466 60.9647 30.7564C60.9647 33.7466 58.6502 35.5328 56.4129 35.5328Z" fill="#00313C"/>
<path d="M84.6708 22.8404C84.6269 22.7603 84.5429 22.7095 84.4511 22.7095H80.0156C79.9306 22.7095 79.8515 22.7525 79.8056 22.8238L76.3857 28.0953L72.997 22.8248C72.9511 22.7525 72.872 22.7096 72.787 22.7096H68.3524C68.2606 22.7096 68.1766 22.7604 68.1327 22.8405C68.0888 22.9216 68.0927 23.0192 68.1434 23.0964L73.2762 30.9489L68.161 38.3464C68.1083 38.4235 68.1024 38.5232 68.1454 38.6052C68.1884 38.6872 68.2743 38.739 68.3671 38.739H72.7919C72.8749 38.739 72.9521 38.698 72.998 38.6296L76.3857 33.6735L79.8046 38.6305C79.8515 38.6989 79.9286 38.7389 80.0107 38.7389H84.4365C84.5293 38.7389 84.6152 38.6871 84.6582 38.6051C84.7012 38.5231 84.6953 38.4235 84.6426 38.3463L79.5274 30.9488L84.6602 23.0963C84.711 23.0192 84.7149 22.9215 84.6709 22.8404H84.6708Z" fill="#00313C"/>
<path d="M94.409 22.3569C89.4383 22.3569 85.6893 25.9682 85.6893 30.7563C85.6893 35.5444 89.4383 39.1557 94.409 39.1557C99.325 39.1557 103.033 35.5444 103.033 30.7563C103.033 25.9682 99.325 22.3569 94.409 22.3569ZM94.409 35.5327C92.1395 35.5327 89.7928 33.7466 89.7928 30.7563C89.7928 27.766 92.1395 25.979 94.409 25.979C96.6307 25.979 98.9295 27.7661 98.9295 30.7563C98.9295 33.7465 96.6307 35.5327 94.409 35.5327Z" fill="#00313C"/>
<path d="M109.904 15.6567H106.173C106.035 15.6567 105.923 15.7687 105.923 15.9067V38.4887C105.923 38.6268 106.035 38.7387 106.173 38.7387H109.904C110.042 38.7387 110.154 38.6268 110.154 38.4887V15.9067C110.154 15.7687 110.042 15.6567 109.904 15.6567Z" fill="#00313C"/>
<path d="M121.711 22.3569C116.74 22.3569 112.991 25.9682 112.991 30.7563C112.991 35.5444 116.74 39.1557 121.711 39.1557C126.627 39.1557 130.335 35.5444 130.335 30.7563C130.335 25.9682 126.627 22.3569 121.711 22.3569ZM121.711 35.5327C119.441 35.5327 117.095 33.7466 117.095 30.7563C117.095 27.766 119.441 25.979 121.711 25.979C123.933 25.979 126.231 27.7661 126.231 30.7563C126.231 33.7465 123.933 35.5327 121.711 35.5327Z" fill="#00313C"/>
<path d="M148.703 22.7418H145.131C144.993 22.7418 144.881 22.8541 144.881 22.9918V23.7359C143.633 22.7564 141.939 22.2603 139.848 22.2603C135.642 22.2603 132.09 25.7984 132.09 29.9869C132.09 34.2096 135.642 37.7769 139.848 37.7769C142.011 37.7769 143.657 37.2945 144.881 36.3023V36.5591C144.881 39.2661 143.132 41.0152 140.425 41.0152C138.35 41.0152 137.346 40.2691 136.216 38.8941C136.13 38.7886 135.978 38.772 135.872 38.8531L132.82 41.1627C132.714 41.2428 132.689 41.3922 132.763 41.5016C134.215 43.6481 136.935 44.8297 140.425 44.8297C145.784 44.8297 148.984 41.9781 148.984 37.1998L148.953 22.9908C148.953 22.8531 148.841 22.7418 148.703 22.7418H148.703ZM140.585 34.1549C137.98 34.1549 136.161 32.441 136.161 29.9869C136.161 27.5328 137.98 25.8189 140.585 25.8189C142.696 25.8189 144.881 27.3775 144.881 29.9869C144.881 32.5963 142.696 34.1549 140.585 34.1549Z" fill="#00313C"/>
<path d="M168.927 22.8218C168.881 22.7515 168.802 22.7095 168.718 22.7095H164.55C164.45 22.7095 164.36 22.7691 164.32 22.8599L159.962 32.9361L155.795 22.8638C155.756 22.77 155.665 22.7095 155.563 22.7095H151.396C151.312 22.7095 151.234 22.7515 151.187 22.8218C151.141 22.8921 151.134 22.981 151.167 23.0581L157.653 38.2261L155.239 43.8404C155.206 43.9175 155.214 44.0064 155.259 44.0767C155.306 44.147 155.384 44.189 155.468 44.189H159.637C159.737 44.189 159.827 44.1294 159.867 44.0386L168.947 23.0591C168.98 22.982 168.972 22.8931 168.926 22.8218H168.927Z" fill="#00313C"/>
</svg>
